# 3ds Max Wavefront OBJ Exporter v0.97b - (c)2007 guruware
# File Created: 22.01.2017 22:58:08

mtllib Apple.mtl

#
# object GeoSphere
#

v  0.0001 2.6441 0.0000
v  0.9183 2.9374 0.0000
v  0.2839 2.9374 -0.8732
v  1.5622 2.5373 0.0000
v  1.2020 2.6820 -0.8732
v  0.4828 2.5373 -1.4856
v  -0.7427 2.9374 -0.5397
v  -0.4589 2.6820 -1.4129
v  -1.2636 2.5373 -0.9181
v  -0.7427 2.9374 0.5397
v  -1.4854 2.6820 0.0000
v  -1.2636 2.5373 0.9181
v  0.2839 2.9374 0.8732
v  -0.4589 2.6820 1.4129
v  0.4828 2.5373 1.4856
v  1.2020 2.6820 0.8732
v  1.6611 1.7478 0.5397
v  1.6611 1.7478 -0.5397
v  1.2638 0.9668 0.9181
v  1.4857 0.8296 0.0000
v  1.2638 0.9668 -0.9181
v  1.0266 1.7478 -1.4129
v  0.0001 1.7478 -1.7464
v  0.4592 0.8296 -1.4129
v  -0.4826 0.9668 -1.4856
v  -1.0264 1.7478 -1.4129
v  -1.6608 1.7478 -0.5397
v  -1.2017 0.8296 -0.8732
v  -1.5619 0.9668 0.0000
v  -1.6608 1.7478 0.5397
v  -1.0264 1.7478 1.4129
v  -1.2017 0.8296 0.8732
v  -0.4826 0.9668 1.4856
v  0.0001 1.7478 1.7464
v  1.0266 1.7478 1.4129
v  0.4592 0.8296 1.4129
v  0.0001 0.0014 0.0000
v  -0.2836 0.2622 -0.8732
v  0.7429 0.2622 -0.5397
v  -0.9180 0.2622 0.0000
v  -0.2836 0.2622 0.8732
v  0.7429 0.2622 0.5397
# 42 vertices

vn -0.2971 0.9301 0.2159
vn 0.5262 0.8469 -0.0767
vn 0.2631 0.9457 -0.1911
vn 0.2356 0.8469 -0.4768
vn 0.1135 0.9301 0.3493
vn 0.0896 0.8469 -0.5242
vn -0.1005 0.9457 -0.3093
vn -0.3806 0.8469 -0.3714
vn 0.3673 0.9301 -0.0000
vn -0.4708 0.8469 -0.2472
vn -0.3252 0.9457 0.0000
vn -0.4708 0.8469 0.2472
vn 0.1135 0.9301 -0.3493
vn -0.3806 0.8469 0.3714
vn -0.1005 0.9457 0.3093
vn 0.0896 0.8469 0.5242
vn -0.2971 0.9301 -0.2159
vn 0.2356 0.8469 0.4768
vn 0.2631 0.9457 0.1911
vn 0.5262 0.8469 0.0767
vn 0.9922 0.1243 -0.0000
vn 0.9050 -0.3304 0.2680
vn 0.9822 -0.1876 -0.0000
vn 0.9050 -0.3304 -0.2680
vn 0.3066 0.1243 -0.9437
vn 0.5346 -0.3304 -0.7779
vn 0.3035 -0.1876 -0.9342
vn 0.0247 -0.3304 -0.9435
vn -0.8027 0.1243 -0.5832
vn -0.5746 -0.3304 -0.7488
vn -0.7947 -0.1876 -0.5774
vn -0.8897 -0.3304 -0.3151
vn -0.8027 0.1243 0.5832
vn -0.8897 -0.3304 0.3151
vn -0.7947 -0.1876 0.5774
vn -0.5746 -0.3304 0.7488
vn 0.3066 0.1243 0.9437
vn 0.0247 -0.3304 0.9435
vn 0.3035 -0.1876 0.9342
vn 0.5346 -0.3304 0.7779
vn 0.8026 -0.1256 -0.5831
vn 0.5740 0.3262 -0.7511
vn 0.7951 0.1845 -0.5777
vn 0.8917 0.3262 -0.3138
vn -0.3066 -0.1256 -0.9435
vn -0.5370 0.3262 -0.7780
vn -0.3037 0.1845 -0.9347
vn -0.0228 0.3262 -0.9450
vn -0.9921 -0.1256 0.0000
vn -0.9058 0.3262 0.2703
vn -0.9828 0.1845 0.0000
vn -0.9058 0.3262 -0.2703
vn -0.3066 -0.1256 0.9435
vn -0.0228 0.3262 0.9450
vn -0.3037 0.1845 0.9347
vn -0.5370 0.3262 0.7780
vn 0.8026 -0.1256 0.5831
vn 0.8917 0.3262 0.3138
vn 0.7951 0.1845 0.5777
vn 0.5740 0.3262 0.7511
vn 0.1024 -0.9435 -0.3151
vn -0.0385 -0.6617 -0.7488
vn 0.1876 -0.7947 -0.5774
vn 0.4713 -0.6617 -0.5831
vn -0.2680 -0.9435 -0.1947
vn -0.7240 -0.6617 -0.1947
vn -0.4911 -0.7947 -0.3568
vn -0.4089 -0.6617 -0.6284
vn -0.2680 -0.9435 0.1947
vn -0.4089 -0.6617 0.6284
vn -0.4911 -0.7947 0.3568
vn -0.7240 -0.6617 0.1947
vn 0.1024 -0.9435 0.3151
vn 0.4713 -0.6617 0.5831
vn 0.1876 -0.7947 0.5774
vn -0.0385 -0.6617 0.7488
vn 0.3313 -0.9435 0.0000
vn 0.7002 -0.6617 -0.2680
vn 0.6071 -0.7947 0.0000
vn 0.7002 -0.6617 0.2680
# 80 vertex normals

vt 0.6000 1.0000 10.1970
vt 0.5000 0.8238 10.1970
vt 0.7000 0.8238 10.1970
vt 0.5000 0.6476 10.1970
vt 0.6000 0.6762 10.1970
vt 0.7000 0.6476 10.1970
vt 0.8000 1.0000 10.1970
vt 0.9000 0.8238 10.1970
vt 0.8000 0.6762 10.1970
vt 0.9000 0.6476 10.1970
vt 0.0000 1.0000 10.1970
vt -0.1000 0.8238 10.1970
vt 0.1000 0.8238 10.1970
vt -0.1000 0.6476 10.1970
vt 0.0000 0.6762 10.1970
vt 0.1000 0.6476 10.1970
vt 0.2000 1.0000 10.1970
vt 0.3000 0.8238 10.1970
vt 0.2000 0.6762 10.1970
vt 0.3000 0.6476 10.1970
vt 0.4000 1.0000 10.1970
vt 0.4000 0.6762 10.1970
vt 0.4500 0.5000 10.1970
vt 0.5500 0.5000 10.1970
vt 0.4000 0.3524 10.1970
vt 0.5000 0.3238 10.1970
vt 0.6000 0.3524 10.1970
vt 0.6500 0.5000 10.1970
vt 0.7500 0.5000 10.1970
vt 0.7000 0.3238 10.1970
vt 0.8000 0.3524 10.1970
vt 0.8500 0.5000 10.1970
vt 0.9500 0.5000 10.1970
vt 0.9000 0.3238 10.1970
vt -0.0500 0.5000 10.1970
vt -0.1000 0.3238 10.1970
vt 0.0000 0.3524 10.1970
vt 0.0500 0.5000 10.1970
vt 0.1500 0.5000 10.1970
vt 0.1000 0.3238 10.1970
vt 0.2000 0.3524 10.1970
vt 0.2500 0.5000 10.1970
vt 0.3500 0.5000 10.1970
vt 0.3000 0.3238 10.1970
vt 0.7000 0.0000 10.1970
vt 0.8000 0.1762 10.1970
vt 0.6000 0.1762 10.1970
vt -0.1000 0.0000 10.1970
vt 0.0000 0.1762 10.1970
vt -0.2000 0.1762 10.1970
vt 0.1000 0.0000 10.1970
vt 0.2000 0.1762 10.1970
vt 0.3000 0.0000 10.1970
vt 0.4000 0.1762 10.1970
vt 0.5000 0.0000 10.1970
# 55 texture coords

g GeoSphere
usemtl Apple_Body
f 1/1/1 2/2/1 3/3/1 
f 2/2/2 4/4/2 5/5/2 
f 2/2/3 5/5/3 3/3/3 
f 3/3/4 5/5/4 6/6/4 
f 1/7/5 3/3/5 7/8/5 
f 3/3/6 6/6/6 8/9/6 
f 3/3/7 8/9/7 7/8/7 
f 7/8/8 8/9/8 9/10/8 
f 1/11/9 7/12/9 10/13/9 
f 7/12/10 9/14/10 11/15/10 
f 7/12/11 11/15/11 10/13/11 
f 10/13/12 11/15/12 12/16/12 
f 1/17/13 10/13/13 13/18/13 
f 10/13/14 12/16/14 14/19/14 
f 10/13/15 14/19/15 13/18/15 
f 13/18/16 14/19/16 15/20/16 
f 1/21/17 13/18/17 2/2/17 
f 13/18/18 15/20/18 16/22/18 
f 13/18/19 16/22/19 2/2/19 
f 2/2/20 16/22/20 4/4/20 
f 4/4/21 17/23/21 18/24/21 
f 17/23/22 19/25/22 20/26/22 
f 17/23/23 20/26/23 18/24/23 
f 18/24/24 20/26/24 21/27/24 
f 6/6/25 22/28/25 23/29/25 
f 22/28/26 21/27/26 24/30/26 
f 22/28/27 24/30/27 23/29/27 
f 23/29/28 24/30/28 25/31/28 
f 9/10/29 26/32/29 27/33/29 
f 26/32/30 25/31/30 28/34/30 
f 26/32/31 28/34/31 27/33/31 
f 27/35/32 28/36/32 29/37/32 
f 12/16/33 30/38/33 31/39/33 
f 30/38/34 29/37/34 32/40/34 
f 30/38/35 32/40/35 31/39/35 
f 31/39/36 32/40/36 33/41/36 
f 15/20/37 34/42/37 35/43/37 
f 34/42/38 33/41/38 36/44/38 
f 34/42/39 36/44/39 35/43/39 
f 35/43/40 36/44/40 19/25/40 
f 21/27/41 22/28/41 18/24/41 
f 22/28/42 6/6/42 5/5/42 
f 22/28/43 5/5/43 18/24/43 
f 18/24/44 5/5/44 4/4/44 
f 25/31/45 26/32/45 23/29/45 
f 26/32/46 9/10/46 8/9/46 
f 26/32/47 8/9/47 23/29/47 
f 23/29/48 8/9/48 6/6/48 
f 29/37/49 30/38/49 27/35/49 
f 30/38/50 12/16/50 11/15/50 
f 30/38/51 11/15/51 27/35/51 
f 27/35/52 11/15/52 9/14/52 
f 33/41/53 34/42/53 31/39/53 
f 34/42/54 15/20/54 14/19/54 
f 34/42/55 14/19/55 31/39/55 
f 31/39/56 14/19/56 12/16/56 
f 19/25/57 17/23/57 35/43/57 
f 17/23/58 4/4/58 16/22/58 
f 17/23/59 16/22/59 35/43/59 
f 35/43/60 16/22/60 15/20/60 
f 37/45/61 38/46/61 39/47/61 
f 38/46/62 25/31/62 24/30/62 
f 38/46/63 24/30/63 39/47/63 
f 39/47/64 24/30/64 21/27/64 
f 37/48/65 40/49/65 38/50/65 
f 40/49/66 29/37/66 28/36/66 
f 40/49/67 28/36/67 38/50/67 
f 38/46/68 28/34/68 25/31/68 
f 37/51/69 41/52/69 40/49/69 
f 41/52/70 33/41/70 32/40/70 
f 41/52/71 32/40/71 40/49/71 
f 40/49/72 32/40/72 29/37/72 
f 37/53/73 42/54/73 41/52/73 
f 42/54/74 19/25/74 36/44/74 
f 42/54/75 36/44/75 41/52/75 
f 41/52/76 36/44/76 33/41/76 
f 37/55/77 39/47/77 42/54/77 
f 39/47/78 21/27/78 20/26/78 
f 39/47/79 20/26/79 42/54/79 
f 42/54/80 20/26/80 19/25/80 
# 80 faces

#
# object Cylinder001
#

v  0.0911 2.5015 0.0000
v  0.0483 2.5015 -0.0742
v  -0.0083 2.8419 -0.0742
v  0.0340 2.8355 0.0000
v  -0.0373 2.5015 -0.0742
v  -0.0930 2.8545 -0.0742
v  -0.0801 2.5015 0.0000
v  -0.1354 2.8608 0.0000
v  -0.0373 2.5015 0.0742
v  -0.0930 2.8545 0.0742
v  0.0483 2.5015 0.0742
v  -0.0083 2.8419 0.0742
v  -0.0066 3.1836 -0.0742
v  0.0331 3.1676 0.0000
v  -0.0861 3.2155 -0.0742
v  -0.1258 3.2314 0.0000
v  -0.0861 3.2155 0.0742
v  -0.0066 3.1836 0.0742
v  0.1169 3.4937 -0.0742
v  0.1526 3.4701 0.0000
v  0.0456 3.5411 -0.0742
v  0.0099 3.5647 0.0000
v  0.0456 3.5411 0.0742
v  0.1169 3.4937 0.0742
# 24 vertices

vn 0.8572 0.1426 -0.4949
vn 0.8642 0.1477 -0.4809
vn -0.0000 -0.0000 -1.0000
vn -0.8585 -0.1319 -0.4956
vn -0.8652 -0.1365 -0.4824
vn -0.8581 -0.1354 0.4954
vn -0.8655 -0.1330 0.4829
vn 0.0000 0.0000 1.0000
vn 0.8567 0.1464 0.4946
vn 0.8646 0.1438 0.4815
vn 0.8682 -0.0043 -0.4962
vn 0.8817 0.0024 -0.4719
vn -0.0000 0.0000 -1.0000
vn -0.8674 0.0223 -0.4972
vn -0.8798 0.0169 -0.4750
vn -0.8677 0.0166 0.4969
vn -0.8792 0.0226 0.4759
vn 0.8685 0.0024 0.4957
vn 0.8810 -0.0044 0.4730
vn 0.8046 -0.3205 -0.5000
vn 0.8098 -0.3199 -0.4917
vn -0.8021 0.3266 -0.5000
vn -0.8069 0.3263 -0.4924
vn -0.8029 0.3246 0.5000
vn -0.8060 0.3282 0.4925
vn 0.8055 -0.3182 0.5000
vn 0.8088 -0.3222 0.4920
vn 0.0000 -1.0000 -0.0000
vn 0.5528 0.8333 0.0000
vn 0.5528 0.8333 -0.0000
# 30 vertex normals

vt 0.7500 0.0000 1.0000
vt 0.9167 0.0000 1.0000
vt 0.9167 0.3333 1.0000
vt 0.7500 0.3333 1.0000
vt 1.0833 0.0000 1.0000
vt 1.0833 0.3333 1.0000
vt 0.0833 0.0000 1.0000
vt 0.2500 0.0000 1.0000
vt 0.2500 0.3333 1.0000
vt 0.0833 0.3333 1.0000
vt 0.4167 0.0000 1.0000
vt 0.4167 0.3333 1.0000
vt 0.5833 0.0000 1.0000
vt 0.5833 0.3333 1.0000
vt 0.9167 0.6667 1.0000
vt 0.7500 0.6667 1.0000
vt 1.0833 0.6667 1.0000
vt 0.2500 0.6667 1.0000
vt 0.0833 0.6667 1.0000
vt 0.4167 0.6667 1.0000
vt 0.5833 0.6667 1.0000
vt 0.9167 1.0000 1.0000
vt 0.7500 1.0000 1.0000
vt 1.0833 1.0000 1.0000
vt 0.2500 1.0000 1.0000
vt 0.0833 1.0000 1.0000
vt 0.4167 1.0000 1.0000
vt 0.5833 1.0000 1.0000
vt 0.9330 0.2500 -0.2500
vt 0.5000 0.0000 -0.2500
vt 0.0670 0.2500 -0.2500
vt 0.0670 0.7500 -0.2500
vt 0.5000 1.0000 -0.2500
vt 0.9330 0.7500 -0.2500
vt 0.0670 0.7500 0.2500
vt 0.0670 0.2500 0.2500
vt 0.5000 0.0000 0.2500
vt 0.9330 0.2500 0.2500
vt 0.9330 0.7500 0.2500
vt 0.5000 1.0000 0.2500
# 40 texture coords

g Cylinder001
usemtl Apple_Branch
f 43/56/81 44/57/81 45/58/81 
f 45/58/82 46/59/82 43/56/82 
f 44/57/83 47/60/83 48/61/83 
f 48/61/83 45/58/83 44/57/83 
f 47/62/84 49/63/84 50/64/84 
f 50/64/85 48/65/85 47/62/85 
f 49/63/86 51/66/86 52/67/86 
f 52/67/87 50/64/87 49/63/87 
f 51/66/88 53/68/88 54/69/88 
f 54/69/88 52/67/88 51/66/88 
f 53/68/89 43/56/89 46/59/89 
f 46/59/90 54/69/90 53/68/90 
f 46/59/91 45/58/91 55/70/91 
f 55/70/92 56/71/92 46/59/92 
f 45/58/93 48/61/93 57/72/93 
f 57/72/93 55/70/93 45/58/93 
f 48/65/94 50/64/94 58/73/94 
f 58/73/95 57/74/95 48/65/95 
f 50/64/96 52/67/96 59/75/96 
f 59/75/97 58/73/97 50/64/97 
f 52/67/88 54/69/88 60/76/88 
f 60/76/88 59/75/88 52/67/88 
f 54/69/98 46/59/98 56/71/98 
f 56/71/99 60/76/99 54/69/99 
f 56/71/100 55/70/100 61/77/100 
f 61/77/101 62/78/101 56/71/101 
f 55/70/93 57/72/93 63/79/93 
f 63/79/93 61/77/93 55/70/93 
f 57/74/102 58/73/102 64/80/102 
f 64/80/103 63/81/103 57/74/103 
f 58/73/104 59/75/104 65/82/104 
f 65/82/105 64/80/105 58/73/105 
f 59/75/88 60/76/88 66/83/88 
f 66/83/88 65/82/88 59/75/88 
f 60/76/106 56/71/106 62/78/106 
f 62/78/107 66/83/107 60/76/107 
f 51/84/108 49/85/108 47/86/108 
f 47/86/108 44/87/108 43/88/108 
f 51/84/108 47/86/108 43/88/108 
f 53/89/108 51/84/108 43/88/108 
f 61/90/109 63/91/109 64/92/109 
f 64/92/110 65/93/110 66/94/110 
f 61/90/110 64/92/110 66/94/110 
f 62/95/110 61/90/110 66/94/110 
# 44 faces

