# 3ds Max Wavefront OBJ Exporter v0.97b - (c)2007 guruware
# File Created: 03.11.2016 09:17:26

mtllib Dice.mtl

#
# object Box001
#

v  -0.5000 0.0000 0.5000
v  -0.5000 0.0000 -0.5000
v  0.5000 0.0000 -0.5000
v  0.5000 0.0000 0.5000
v  -0.5000 1.0000 0.5000
v  0.5000 1.0000 0.5000
v  0.5000 1.0000 -0.5000
v  -0.5000 1.0000 -0.5000
# 8 vertices

vn 0.0000 -1.0000 -0.0000
vn 0.0000 1.0000 -0.0000
vn 0.0000 0.0000 1.0000
vn 1.0000 0.0000 -0.0000
vn 0.0000 0.0000 -1.0000
vn -1.0000 0.0000 -0.0000
# 6 vertex normals

vt 0.7610 0.3280 0.0000
vt 0.7610 0.6524 0.0000
vt 0.9946 0.6524 0.0000
vt 0.9946 0.3280 0.0000
vt 0.2648 0.3354 0.0000
vt 0.4984 0.3354 0.0000
vt 0.4984 0.6598 0.0000
vt 0.2648 0.6598 0.0000
vt 0.2625 0.6708 0.0000
vt 0.4961 0.6708 0.0000
vt 0.4961 0.9952 0.0000
vt 0.2625 0.9952 0.0000
vt 0.5111 0.3329 0.0000
vt 0.7447 0.3329 0.0000
vt 0.7447 0.6573 0.0000
vt 0.5111 0.6573 0.0000
vt 0.4947 0.0021 0.0000
vt 0.2611 0.0021 0.0000
vt 0.2611 0.3265 0.0000
vt 0.4947 0.3265 0.0000
vt 0.2468 0.3369 0.0000
vt 0.0133 0.3369 0.0000
vt 0.0133 0.6613 0.0000
vt 0.2468 0.6613 0.0000
# 24 texture coords

g Box001
usemtl diceMap
f 1/1/1 2/2/1 3/3/1 
f 3/3/1 4/4/1 1/1/1 
f 5/5/2 6/6/2 7/7/2 
f 7/7/2 8/8/2 5/5/2 
f 1/9/3 4/10/3 6/11/3 
f 6/11/3 5/12/3 1/9/3 
f 4/13/4 3/14/4 7/15/4 
f 7/15/4 6/16/4 4/13/4 
f 3/17/5 2/18/5 8/19/5 
f 8/19/5 7/20/5 3/17/5 
f 2/21/6 1/22/6 5/23/6 
f 5/23/6 8/24/6 2/21/6 
# 12 faces

